<?xml version="1.0" encoding="UTF-8" standalone="no"?>
<svg
   xmlns:dc="http://purl.org/dc/elements/1.1/"
   xmlns:cc="http://creativecommons.org/ns#"
   xmlns:rdf="http://www.w3.org/1999/02/22-rdf-syntax-ns#"
   xmlns:svg="http://www.w3.org/2000/svg"
   xmlns="http://www.w3.org/2000/svg"
   xmlns:sodipodi="http://sodipodi.sourceforge.net/DTD/sodipodi-0.dtd"
   xmlns:inkscape="http://www.inkscape.org/namespaces/inkscape"
   version="1.1"
   id="svg10"
   xml:space="preserve"
   width="288"
   height="477.33334"
   viewBox="0 0 288 477.33334"
   sodipodi:docname="70x120mm_template.svg"
   inkscape:version="1.0.2 (e86c8708, 2021-01-15)"><metadata
     id="metadata16"><rdf:RDF><cc:Work
         rdf:about=""><dc:format>image/svg+xml</dc:format><dc:type
           rdf:resource="http://purl.org/dc/dcmitype/StillImage" /><dc:title></dc:title></cc:Work></rdf:RDF></metadata><defs
     id="defs14" /><sodipodi:namedview
     pagecolor="#ffffff"
     bordercolor="#666666"
     borderopacity="1"
     objecttolerance="10"
     gridtolerance="10"
     guidetolerance="10"
     inkscape:pageopacity="0"
     inkscape:pageshadow="2"
     inkscape:window-width="948"
     inkscape:window-height="782"
     id="namedview12"
     showgrid="false"
     inkscape:zoom="1.2108938"
     inkscape:cx="104.35986"
     inkscape:cy="232.05998"
     inkscape:window-x="0"
     inkscape:window-y="25"
     inkscape:window-maximized="0"
     inkscape:current-layer="g18" /><g
     id="g18"
     inkscape:groupmode="layer"
     inkscape:label="ink_ext_XXXXXX"
     transform="matrix(1.3333333,0,0,-1.3333333,0,477.33333)"><g
       id="g20"
       transform="scale(0.1)"><path
         d="m 1955.91,283.469 c 0,-80.789 -80.79,-80.789 -80.79,-80.789 H 277.789 c -80.781,0 -80.781,80.789 -80.781,80.789 V 3293.86 c 0,80.78 80.781,80.78 80.781,80.78 H 1875.12 c 80.79,0 80.79,-80.78 80.79,-80.78 z M 0,0 H 2154.33 V 3571.64 H 0 V 0"
         style="fill:#ffffff;fill-opacity:1;fill-rule:nonzero;stroke:none"
         id="path22" /><path
         d="m 1955.91,283.469 c 0,-80.789 -80.79,-80.789 -80.79,-80.789 H 277.789 c -80.781,0 -80.781,80.789 -80.781,80.789 V 3293.86 c 0,80.78 80.781,80.78 80.781,80.78 H 1875.12 c 80.79,0 80.79,-80.78 80.79,-80.78 z"
         style="fill:none;stroke:#ea0a8b;stroke-width:10;stroke-linecap:butt;stroke-linejoin:miter;stroke-miterlimit:10;stroke-dasharray:none;stroke-opacity:1"
         id="path24" /><path
         d="m 772.262,2096.87 c -4.68,-1.8 -14.032,-4.42 -24.953,-4.42 -12.227,0 -22.309,3.11 -30.219,10.67 -6.957,6.71 -11.277,17.5 -11.277,30.09 0,24.11 16.667,41.75 43.777,41.75 9.351,0 16.793,-2.04 20.273,-3.71 l -2.64,-8.53 c -4.325,2.04 -9.711,3.49 -17.871,3.49 -19.668,0 -32.5,-12.25 -32.5,-32.5 0,-20.53 12.23,-32.64 31.179,-32.64 6.84,0 11.52,0.97 13.922,2.16 v 24.11 h -16.324 v 8.39 h 26.633 v -38.86"
         style="fill:#ea088a;fill-opacity:1;fill-rule:nonzero;stroke:none"
         id="path26" /><path
         d="M 829.867,2131.18 H 798.57 v -29.15 h 35.02 v -8.75 h -45.582 v 80.83 h 43.777 v -8.75 H 798.57 v -25.55 h 31.297 v -8.63"
         style="fill:#ea088a;fill-opacity:1;fill-rule:nonzero;stroke:none"
         id="path28" /><path
         d="m 845.855,2106 c 4.676,-3 11.391,-5.28 18.586,-5.28 10.672,0 16.911,5.63 16.911,13.8 0,7.42 -4.317,11.86 -15.231,15.93 -13.187,4.8 -21.348,11.77 -21.348,23.04 0,12.58 10.43,21.93 26.141,21.93 8.156,0 14.281,-1.9 17.746,-3.95 l -2.863,-8.52 c -2.52,1.58 -7.922,3.85 -15.246,3.85 -11.024,0 -15.231,-6.59 -15.231,-12.11 0,-7.57 4.922,-11.28 16.071,-15.59 13.683,-5.28 20.511,-11.88 20.511,-23.74 0,-12.48 -9.109,-23.39 -28.175,-23.39 -7.805,0 -16.317,2.39 -20.629,5.27 l 2.757,8.76"
         style="fill:#ea088a;fill-opacity:1;fill-rule:nonzero;stroke:none"
         id="path30" /><path
         d="m 921.684,2165.24 h -24.59 v 8.88 h 59.847 v -8.88 h -24.707 v -71.95 h -10.55 v 71.95"
         style="fill:#ea088a;fill-opacity:1;fill-rule:nonzero;stroke:none"
         id="path32" /><path
         d="m 996.672,2126.87 -8.043,23.26 c -1.789,5.28 -3,10.08 -4.191,14.75 h -0.25 c -1.192,-4.67 -2.387,-9.71 -4.067,-14.64 l -7.918,-23.37 z m -26.633,-8.16 -8.391,-25.42 h -10.796 l 27.586,80.83 h 12.468 l 27.594,-80.83 h -11.16 l -8.629,25.42 h -28.672"
         style="fill:#ea088a;fill-opacity:1;fill-rule:nonzero;stroke:none"
         id="path34" /><path
         d="m 1030.29,2174.11 h 10.56 v -72.08 h 34.54 v -8.75 h -45.1 v 80.83"
         style="fill:#ea088a;fill-opacity:1;fill-rule:nonzero;stroke:none"
         id="path36" /><path
         d="m 1091.84,2165.24 h -24.58 v 8.88 h 59.83 v -8.88 h -24.71 v -71.95 h -10.54 v 71.95"
         style="fill:#ea088a;fill-opacity:1;fill-rule:nonzero;stroke:none"
         id="path38" /><path
         d="m 1146.56,2101.19 c 2.17,-0.36 5.04,-0.48 8.75,-0.48 10.8,0 20.76,3.96 20.76,15.71 0,10.92 -9.47,15.6 -20.87,15.6 h -8.64 z m 0,38.62 h 9.48 c 10.91,0 17.41,5.88 17.41,13.67 0,9.36 -7.09,13.2 -17.65,13.2 -4.8,0 -7.56,-0.36 -9.24,-0.72 z m -10.43,33.11 c 4.55,1.07 11.89,1.8 19.07,1.8 10.43,0 17.14,-1.8 22.07,-5.88 4.19,-3.12 6.83,-7.92 6.83,-14.28 0,-7.91 -5.27,-14.75 -13.67,-17.74 v -0.37 c 7.68,-1.79 16.68,-8.15 16.68,-20.14 0,-6.97 -2.77,-12.36 -6.97,-16.19 -5.51,-5.16 -14.62,-7.56 -27.82,-7.56 -7.2,0 -12.71,0.48 -16.19,0.95 v 79.41"
         style="fill:#ea088a;fill-opacity:1;fill-rule:nonzero;stroke:none"
         id="path40" /><path
         d="m 1240.86,2126.87 -8.03,23.26 c -1.79,5.28 -3.02,10.08 -4.2,14.75 h -0.23 c -1.21,-4.67 -2.4,-9.71 -4.08,-14.64 l -7.91,-23.37 z m -26.62,-8.16 -8.4,-25.42 h -10.78 l 27.58,80.83 h 12.48 l 27.58,-80.83 h -11.16 l -8.63,25.42 h -28.67"
         style="fill:#ea088a;fill-opacity:1;fill-rule:nonzero;stroke:none"
         id="path42" /><path
         d="m 1285.04,2136.21 h 10.68 c 11.16,0 18.23,6.12 18.23,15.35 0,10.44 -7.56,15 -18.6,15 -5.04,0 -8.51,-0.36 -10.31,-0.84 z m -10.43,36.83 c 5.27,0.95 12.95,1.68 20.02,1.68 11.15,0 18.48,-2.16 23.4,-6.61 3.94,-3.59 6.35,-9.11 6.35,-15.46 0,-10.56 -6.72,-17.63 -15.12,-20.51 v -0.36 c 6.13,-2.16 9.84,-7.92 11.76,-16.31 2.63,-11.28 4.57,-19.07 6.25,-22.19 h -10.81 c -1.32,2.39 -3.12,9.23 -5.27,19.31 -2.4,11.15 -6.83,15.35 -16.31,15.71 h -9.84 v -35.02 h -10.43 v 79.76"
         style="fill:#ea088a;fill-opacity:1;fill-rule:nonzero;stroke:none"
         id="path44" /><path
         d="m 1380.9,2131.18 h -31.29 v -29.15 h 35.02 v -8.75 h -45.6 v 80.83 h 43.8 v -8.75 h -33.22 v -25.55 h 31.29 v -8.63"
         style="fill:#ea088a;fill-opacity:1;fill-rule:nonzero;stroke:none"
         id="path46" /><path
         d="m 1408.63,2136.21 h 10.69 c 11.15,0 18.22,6.12 18.22,15.35 0,10.44 -7.56,15 -18.58,15 -5.03,0 -8.51,-0.36 -10.33,-0.84 z m -10.43,36.83 c 5.28,0.95 12.95,1.68 20.04,1.68 11.15,0 18.46,-2.16 23.38,-6.61 3.97,-3.59 6.37,-9.11 6.37,-15.46 0,-10.56 -6.72,-17.63 -15.12,-20.51 v -0.36 c 6.11,-2.16 9.83,-7.92 11.76,-16.31 2.64,-11.28 4.55,-19.07 6.23,-22.19 h -10.8 c -1.31,2.39 -3.12,9.23 -5.27,19.31 -2.41,11.15 -6.84,15.35 -16.31,15.71 h -9.85 v -35.02 h -10.43 v 79.76"
         style="fill:#ea088a;fill-opacity:1;fill-rule:nonzero;stroke:none"
         id="path48" /><path
         d="m 885.027,1957.2 c 2.161,-0.36 5.032,-0.48 8.75,-0.48 10.801,0 20.754,3.96 20.754,15.71 0,10.9 -9.472,15.59 -20.875,15.59 h -8.629 z m 0,38.61 h 9.469 c 10.926,0 17.402,5.87 17.402,13.68 0,9.35 -7.078,13.19 -17.64,13.19 -4.789,0 -7.547,-0.35 -9.231,-0.71 z m -10.425,33.11 c 4.546,1.08 11.867,1.8 19.054,1.8 10.442,0 17.164,-1.8 22.071,-5.88 4.199,-3.12 6.839,-7.91 6.839,-14.27 0,-7.92 -5.277,-14.76 -13.671,-17.75 v -0.36 c 7.671,-1.8 16.675,-8.16 16.675,-20.16 0,-6.95 -2.761,-12.35 -6.961,-16.18 -5.519,-5.16 -14.629,-7.56 -27.816,-7.56 -7.203,0 -12.723,0.49 -16.191,0.96 v 79.4"
         style="fill:#ea088a;fill-opacity:1;fill-rule:nonzero;stroke:none"
         id="path50" /><path
         d="m 981.371,1987.18 h -31.297 v -29.14 h 35.02 v -8.76 h -45.582 v 80.84 h 43.769 v -8.76 h -33.207 v -25.55 h 31.297 v -8.63"
         style="fill:#ea088a;fill-opacity:1;fill-rule:nonzero;stroke:none"
         id="path52" /><path
         d="m 1009.11,1992.22 h 10.67 c 11.16,0 18.23,6.11 18.23,15.35 0,10.43 -7.56,14.99 -18.6,14.99 -5.03,0 -8.5,-0.36 -10.3,-0.84 z m -10.434,36.82 c 5.274,0.96 12.954,1.68 20.024,1.68 11.15,0 18.47,-2.17 23.38,-6.6 3.96,-3.6 6.37,-9.12 6.37,-15.47 0,-10.55 -6.73,-17.63 -15.12,-20.52 v -0.34 c 6.12,-2.17 9.83,-7.92 11.76,-16.33 2.63,-11.26 4.55,-19.05 6.24,-22.18 h -10.8 c -1.33,2.39 -3.12,9.24 -5.29,19.32 -2.38,11.15 -6.82,15.35 -16.3,15.7 h -9.83 v -35.02 h -10.434 v 79.76"
         style="fill:#ea088a;fill-opacity:1;fill-rule:nonzero;stroke:none"
         id="path54" /><path
         d="m 1104.96,1987.18 h -31.29 v -29.14 h 35.02 v -8.76 h -45.58 v 80.84 h 43.78 v -8.76 h -33.22 v -25.55 h 31.29 v -8.63"
         style="fill:#ea088a;fill-opacity:1;fill-rule:nonzero;stroke:none"
         id="path56" /><path
         d="m 1132.7,1949.28 h -10.55 v 80.84 h 10.55 v -80.84"
         style="fill:#ea088a;fill-opacity:1;fill-rule:nonzero;stroke:none"
         id="path58" /><path
         d="m 1207.32,1951.8 c -3.73,-1.91 -11.52,-3.84 -21.34,-3.84 -22.8,0 -39.83,14.4 -39.83,41.01 0,25.44 17.15,42.47 42.21,42.47 9.96,0 16.44,-2.16 19.2,-3.6 l -2.64,-8.51 c -3.85,1.91 -9.47,3.35 -16.19,3.35 -18.94,0 -31.54,-12.11 -31.54,-33.34 0,-19.9 11.38,-32.5 30.94,-32.5 6.48,0 12.94,1.32 17.14,3.36 l 2.05,-8.4"
         style="fill:#ea088a;fill-opacity:1;fill-rule:nonzero;stroke:none"
         id="path60" /><path
         d="m 1230.98,2030.12 v -33.82 h 39.1 v 33.82 h 10.55 v -80.84 h -10.55 v 37.9 h -39.1 v -37.9 h -10.55 v 80.84 h 10.55"
         style="fill:#ea088a;fill-opacity:1;fill-rule:nonzero;stroke:none"
         id="path62" /><path
         d="m 789.934,1714.72 c 1.761,-0.25 4.32,-0.33 7.039,-0.33 14.953,0 22.949,8.32 22.949,22.88 0.066,12.7 -7.117,20.78 -21.84,20.78 -3.59,0 -6.309,-0.32 -8.148,-0.72 z m -6.961,47.65 c 4.238,0.72 9.277,1.19 14.8,1.19 9.993,0 17.11,-2.38 21.817,-6.7 4.883,-4.41 7.68,-10.64 7.68,-19.36 0,-8.79 -2.797,-15.99 -7.758,-20.95 -5.11,-5.04 -13.426,-7.75 -23.903,-7.75 -5.039,0 -9.117,0.23 -12.636,0.63 v 52.94"
         style="fill:#ea088a;fill-opacity:1;fill-rule:nonzero;stroke:none"
         id="path64" /><path
         d="m 836.02,1747.98 h 7.043 v -38.7 h -7.043 z m 7.828,10.87 c 0,-2.39 -1.68,-4.32 -4.469,-4.32 -2.559,0 -4.238,1.93 -4.238,4.32 0,2.4 1.757,4.4 4.402,4.4 2.547,0 4.305,-1.92 4.305,-4.4"
         style="fill:#ea088a;fill-opacity:1;fill-rule:nonzero;stroke:none"
         id="path66" /><path
         d="m 879.281,1732.38 c 0.078,4.41 -1.84,11.36 -9.761,11.36 -7.184,0 -10.227,-6.47 -10.79,-11.36 z m -20.629,-5.04 c 0.161,-9.51 6.157,-13.42 13.274,-13.42 5.039,0 8.156,0.87 10.707,2 l 1.277,-5.04 c -2.469,-1.12 -6.785,-2.48 -12.949,-2.48 -11.906,0 -19.027,7.92 -19.027,19.59 0,11.67 6.879,20.79 18.148,20.79 12.723,0 15.992,-11.04 15.992,-18.16 0,-1.43 -0.082,-2.48 -0.246,-3.28 h -27.176"
         style="fill:#ea088a;fill-opacity:1;fill-rule:nonzero;stroke:none"
         id="path68" /><path
         d="m 893.855,1716.4 c 2.161,-1.28 5.833,-2.73 9.364,-2.73 5.027,0 7.426,2.48 7.426,5.76 0,3.36 -1.997,5.12 -7.122,7.03 -7.023,2.56 -10.304,6.32 -10.304,10.96 0,6.24 5.117,11.36 13.347,11.36 3.922,0 7.36,-1.05 9.442,-2.4 l -1.684,-5.12 c -1.515,0.96 -4.32,2.31 -7.918,2.31 -4.16,0 -6.39,-2.39 -6.39,-5.27 0,-3.19 2.23,-4.64 7.269,-6.63 6.641,-2.48 10.16,-5.84 10.16,-11.6 0,-6.88 -5.359,-11.67 -14.398,-11.67 -4.231,0 -8.149,1.12 -10.867,2.71 l 1.675,5.29"
         style="fill:#ea088a;fill-opacity:1;fill-rule:nonzero;stroke:none"
         id="path70" /><path
         d="m 951.039,1732.38 c 0.078,4.41 -1.84,11.36 -9.75,11.36 -7.195,0 -10.238,-6.47 -10.801,-11.36 z m -20.629,-5.04 c 0.16,-9.51 6.16,-13.42 13.281,-13.42 5.039,0 8.149,0.87 10.707,2 l 1.282,-5.04 c -2.481,-1.12 -6.797,-2.48 -12.95,-2.48 -11.91,0 -19.031,7.92 -19.031,19.59 0,11.67 6.871,20.79 18.153,20.79 12.711,0 15.992,-11.04 15.992,-18.16 0,-1.43 -0.086,-2.48 -0.246,-3.28 H 930.41"
         style="fill:#ea088a;fill-opacity:1;fill-rule:nonzero;stroke:none"
         id="path72" /><path
         d="m 1011.6,1734.54 h -20.873 v -19.42 h 23.353 v -5.84 h -30.392 v 53.88 h 29.192 v -5.83 h -22.153 v -17.03 h 20.873 v -5.76"
         style="fill:#ea088a;fill-opacity:1;fill-rule:nonzero;stroke:none"
         id="path74" /><path
         d="m 1029.85,1724.79 c 0,-0.88 0.08,-1.76 0.32,-2.56 1.28,-4.88 5.44,-8.24 10.55,-8.24 7.44,0 11.76,6 11.76,14.88 0,7.75 -4,14.39 -11.59,14.39 -4.72,0 -9.2,-3.36 -10.64,-8.64 -0.24,-0.88 -0.4,-1.84 -0.4,-2.96 z m -6.96,41.25 h 6.96 v -24.3 h 0.16 c 2.48,4.31 6.95,7.04 13.19,7.04 9.68,0 16.4,-8 16.4,-19.67 0,-13.84 -8.8,-20.71 -17.44,-20.71 -5.59,0 -10.07,2.16 -13.03,7.2 h -0.16 l -0.4,-6.32 h -6 c 0.17,2.63 0.32,6.54 0.32,9.99 v 46.77"
         style="fill:#ea088a;fill-opacity:1;fill-rule:nonzero;stroke:none"
         id="path76" /><path
         d="m 1092.95,1732.38 c 0.08,4.41 -1.84,11.36 -9.75,11.36 -7.19,0 -10.23,-6.47 -10.79,-11.36 z m -20.62,-5.04 c 0.16,-9.51 6.15,-13.42 13.28,-13.42 5.03,0 8.14,0.87 10.7,2 l 1.29,-5.04 c -2.48,-1.12 -6.8,-2.48 -12.95,-2.48 -11.92,0 -19.04,7.92 -19.04,19.59 0,11.67 6.88,20.79 18.14,20.79 12.71,0 16,-11.04 16,-18.16 0,-1.43 -0.08,-2.48 -0.24,-3.28 h -27.18"
         style="fill:#ea088a;fill-opacity:1;fill-rule:nonzero;stroke:none"
         id="path78" /><path
         d="m 1108.48,1737.5 c 0,4.08 -0.08,7.28 -0.32,10.48 h 6.23 l 0.41,-6.4 h 0.16 c 1.92,3.6 6.41,7.2 12.79,7.2 5.36,0 13.68,-3.2 13.68,-16.48 v -23.02 h -7.04 v 22.3 c 0,6.24 -2.32,11.44 -8.96,11.44 -4.55,0 -8.14,-3.28 -9.43,-7.2 -0.32,-0.88 -0.47,-2.08 -0.47,-3.27 v -23.27 h -7.05 v 28.22"
         style="fill:#ea088a;fill-opacity:1;fill-rule:nonzero;stroke:none"
         id="path80" /><path
         d="m 1177.44,1732.38 c 0.08,4.41 -1.86,11.36 -9.76,11.36 -7.19,0 -10.24,-6.47 -10.8,-11.36 z m -20.64,-5.04 c 0.17,-9.51 6.17,-13.42 13.28,-13.42 5.04,0 8.14,0.87 10.7,2 l 1.29,-5.04 c -2.48,-1.12 -6.8,-2.48 -12.95,-2.48 -11.91,0 -19.04,7.92 -19.04,19.59 0,11.67 6.89,20.79 18.16,20.79 12.72,0 15.98,-11.04 15.98,-18.16 0,-1.43 -0.08,-2.48 -0.24,-3.28 h -27.18"
         style="fill:#ea088a;fill-opacity:1;fill-rule:nonzero;stroke:none"
         id="path82" /><path
         d="m 1209.92,1737.5 c 0,4.08 -0.15,7.28 -0.31,10.48 h 6.15 l 0.31,-6.32 h 0.26 c 2.15,3.68 5.74,7.12 12.22,7.12 5.2,0 9.2,-3.2 10.88,-7.76 h 0.16 c 1.19,2.24 2.79,3.83 4.39,5.03 2.33,1.76 4.81,2.73 8.48,2.73 5.2,0 12.79,-3.36 12.79,-16.8 v -22.7 h -6.87 v 21.82 c 0,7.52 -2.79,11.92 -8.4,11.92 -4.08,0 -7.11,-2.96 -8.4,-6.32 -0.31,-1.04 -0.54,-2.24 -0.54,-3.52 v -23.9 h -6.88 v 23.18 c 0,6.16 -2.73,10.56 -8.09,10.56 -4.31,0 -7.59,-3.52 -8.71,-7.03 -0.41,-0.97 -0.56,-2.25 -0.56,-3.44 v -23.27 h -6.88 v 28.22"
         style="fill:#ea088a;fill-opacity:1;fill-rule:nonzero;stroke:none"
         id="path84" /><path
         d="m 1309.02,1719.91 c 0,-4.08 0.08,-7.6 0.34,-10.63 h -6.25 l -0.4,6.32 h -0.15 c -1.76,-3.13 -5.92,-7.2 -12.79,-7.2 -6.1,0 -13.36,3.44 -13.36,16.95 v 22.63 h 7.03 v -21.35 c 0,-7.36 2.32,-12.39 8.63,-12.39 4.73,0 8,3.27 9.28,6.47 0.41,0.96 0.64,2.24 0.64,3.6 v 23.67 h 7.03 v -28.07"
         style="fill:#ea088a;fill-opacity:1;fill-rule:nonzero;stroke:none"
         id="path86" /><path
         d="m 1319.77,1716.4 c 2.14,-1.28 5.84,-2.73 9.35,-2.73 5.04,0 7.44,2.48 7.44,5.76 0,3.36 -2,5.12 -7.13,7.03 -7.03,2.56 -10.31,6.32 -10.31,10.96 0,6.24 5.12,11.36 13.36,11.36 3.91,0 7.34,-1.05 9.43,-2.4 l -1.68,-5.12 c -1.52,0.96 -4.31,2.31 -7.91,2.31 -4.16,0 -6.4,-2.39 -6.4,-5.27 0,-3.19 2.24,-4.64 7.27,-6.63 6.63,-2.48 10.17,-5.84 10.17,-11.6 0,-6.88 -5.37,-11.67 -14.4,-11.67 -4.23,0 -8.15,1.12 -10.87,2.71 l 1.68,5.29"
         style="fill:#ea088a;fill-opacity:1;fill-rule:nonzero;stroke:none"
         id="path88" /><path
         d="m 1351.45,1716.4 c 2.14,-1.28 5.84,-2.73 9.35,-2.73 5.04,0 7.44,2.48 7.44,5.76 0,3.36 -2.01,5.12 -7.13,7.03 -7.03,2.56 -10.31,6.32 -10.31,10.96 0,6.24 5.12,11.36 13.35,11.36 3.92,0 7.35,-1.05 9.44,-2.4 l -1.68,-5.12 c -1.52,0.96 -4.31,2.31 -7.91,2.31 -4.16,0 -6.4,-2.39 -6.4,-5.27 0,-3.19 2.24,-4.64 7.28,-6.63 6.62,-2.48 10.16,-5.84 10.16,-11.6 0,-6.88 -5.37,-11.67 -14.4,-11.67 -4.23,0 -8.16,1.12 -10.87,2.71 l 1.68,5.29"
         style="fill:#ea088a;fill-opacity:1;fill-rule:nonzero;stroke:none"
         id="path90" /><path
         d="m 792.234,1623.92 c 0,-4.09 0.079,-7.6 0.321,-10.64 h -6.227 l -0.398,6.32 h -0.164 c -1.762,-3.13 -5.922,-7.2 -12.801,-7.2 -6.078,0 -13.352,3.44 -13.352,16.96 v 22.62 h 7.032 v -21.35 c 0,-7.36 2.32,-12.39 8.644,-12.39 4.715,0 7.988,3.27 9.266,6.48 0.402,0.95 0.64,2.23 0.64,3.59 v 23.67 h 7.039 v -28.06"
         style="fill:#ea088a;fill-opacity:1;fill-rule:nonzero;stroke:none"
         id="path92" /><path
         d="m 803.938,1641.5 c 0,4.09 -0.083,7.28 -0.321,10.48 h 6.238 l 0.399,-6.39 h 0.16 c 1.922,3.59 6.402,7.19 12.793,7.19 5.356,0 13.668,-3.2 13.668,-16.47 v -23.03 h -7.031 v 22.31 c 0,6.24 -2.321,11.43 -8.961,11.43 -4.543,0 -8.149,-3.28 -9.43,-7.2 -0.316,-0.87 -0.476,-2.08 -0.476,-3.27 v -23.27 h -7.039 v 28.22"
         style="fill:#ea088a;fill-opacity:1;fill-rule:nonzero;stroke:none"
         id="path94" /><path
         d="m 855.289,1628.79 c 0,-0.88 0.078,-1.76 0.32,-2.56 1.282,-4.87 5.442,-8.23 10.547,-8.23 7.442,0 11.766,6 11.766,14.87 0,7.75 -4.004,14.4 -11.594,14.4 -4.723,0 -9.199,-3.36 -10.64,-8.65 -0.239,-0.87 -0.399,-1.83 -0.399,-2.96 z m -6.961,41.26 h 6.961 v -24.31 h 0.16 c 2.481,4.32 6.949,7.04 13.188,7.04 9.683,0 16.402,-7.99 16.402,-19.66 0,-13.84 -8.801,-20.72 -17.441,-20.72 -5.59,0 -10.071,2.16 -13.028,7.2 h -0.16 l -0.402,-6.32 h -6 c 0.172,2.64 0.32,6.54 0.32,9.99 v 46.78"
         style="fill:#ea088a;fill-opacity:1;fill-rule:nonzero;stroke:none"
         id="path96" /><path
         d="m 918.402,1636.39 c 0.078,4.4 -1.839,11.35 -9.757,11.35 -7.192,0 -10.231,-6.47 -10.793,-11.35 z m -20.629,-5.04 c 0.161,-9.51 6.157,-13.43 13.274,-13.43 5.039,0 8.156,0.88 10.707,2.01 l 1.277,-5.05 c -2.468,-1.12 -6.785,-2.48 -12.949,-2.48 -11.906,0 -19.027,7.92 -19.027,19.59 0,11.68 6.879,20.79 18.148,20.79 12.723,0 15.992,-11.03 15.992,-18.15 0,-1.44 -0.082,-2.48 -0.246,-3.28 h -27.176"
         style="fill:#ea088a;fill-opacity:1;fill-rule:nonzero;stroke:none"
         id="path98" /><path
         d="m 960.316,1636.23 c 0,0.88 -0.078,2.08 -0.32,2.96 -1.043,4.39 -4.879,8.08 -10.148,8.08 -7.282,0 -11.602,-6.4 -11.602,-14.88 0,-7.84 3.922,-14.31 11.442,-14.31 4.707,0 9.027,3.2 10.308,8.39 0.242,0.96 0.32,1.92 0.32,3.04 z m 6.957,33.82 v -46.78 c 0,-3.44 0.165,-7.35 0.325,-9.99 h -6.243 l -0.32,6.72 h -0.238 c -2.082,-4.32 -6.719,-7.6 -13.027,-7.6 -9.364,0 -16.633,7.92 -16.633,19.67 -0.082,12.87 7.988,20.71 17.347,20.71 6.004,0 9.914,-2.8 11.672,-5.84 h 0.16 v 23.11 h 6.957"
         style="fill:#ea088a;fill-opacity:1;fill-rule:nonzero;stroke:none"
         id="path100" /><path
         d="m 979.047,1651.98 h 7.043 v -38.7 h -7.043 z m 7.844,10.87 c 0,-2.39 -1.68,-4.31 -4.481,-4.31 -2.562,0 -4.242,1.92 -4.242,4.31 0,2.4 1.773,4.41 4.398,4.41 2.567,0 4.325,-1.93 4.325,-4.41"
         style="fill:#ea088a;fill-opacity:1;fill-rule:nonzero;stroke:none"
         id="path102" /><path
         d="m 997.77,1641.5 c 0,4.09 -0.079,7.28 -0.321,10.48 h 6.241 l 0.4,-6.39 h 0.16 c 1.92,3.59 6.4,7.19 12.79,7.19 5.36,0 13.67,-3.2 13.67,-16.47 v -23.03 h -7.03 v 22.31 c 0,6.24 -2.32,11.43 -8.96,11.43 -4.56,0 -8.15,-3.28 -9.43,-7.2 -0.32,-0.87 -0.48,-2.08 -0.48,-3.27 v -23.27 h -7.04 v 28.22"
         style="fill:#ea088a;fill-opacity:1;fill-rule:nonzero;stroke:none"
         id="path104" /><path
         d="m 1068.24,1636.71 c 0,1.2 -0.08,2.24 -0.4,3.11 -1.28,4.16 -4.64,7.52 -9.83,7.52 -6.72,0 -11.52,-5.67 -11.52,-14.63 0,-7.59 3.92,-13.91 11.43,-13.91 4.4,0 8.32,2.71 9.76,7.2 0.4,1.2 0.56,2.55 0.56,3.76 z m 7.04,-17.75 c 0,-8.96 -1.84,-14.31 -5.52,-17.75 -3.84,-3.44 -9.28,-4.64 -14.16,-4.64 -4.63,0 -9.76,1.12 -12.88,3.2 l 1.77,5.44 c 2.56,-1.68 6.55,-3.12 11.35,-3.12 7.2,0 12.48,3.76 12.48,13.59 v 4.24 h -0.16 c -2.08,-3.6 -6.32,-6.48 -12.32,-6.48 -9.59,0 -16.47,8.15 -16.47,18.87 0,13.11 8.55,20.47 17.51,20.47 6.72,0 10.32,-3.43 12.08,-6.64 h 0.16 l 0.24,5.84 h 6.23 c -0.24,-2.72 -0.31,-5.92 -0.31,-10.55 v -22.47"
         style="fill:#ea088a;fill-opacity:1;fill-rule:nonzero;stroke:none"
         id="path106" /><path
         d="m 1095.37,1661.26 v -9.28 h 10.06 v -5.36 h -10.06 v -20.87 c 0,-4.79 1.35,-7.51 5.27,-7.51 1.92,0 3.03,0.16 4.09,0.48 l 0.31,-5.36 c -1.37,-0.48 -3.52,-0.96 -6.23,-0.96 -3.28,0 -5.92,1.13 -7.6,2.96 -1.91,2.16 -2.71,5.6 -2.71,10.16 v 21.1 h -6 v 5.36 h 6 v 7.2 l 6.87,2.08"
         style="fill:#ea088a;fill-opacity:1;fill-rule:nonzero;stroke:none"
         id="path108" /><path
         d="m 1133.05,1651.98 7.59,-21.67 c 1.27,-3.6 2.33,-6.79 3.11,-9.99 h 0.25 c 0.88,3.2 2,6.39 3.29,9.99 l 7.5,21.67 h 7.36 l -15.2,-38.7 h -6.72 l -14.7,38.7 h 7.52"
         style="fill:#ea088a;fill-opacity:1;fill-rule:nonzero;stroke:none"
         id="path110" /><path
         d="m 1172.4,1632.55 c 0,-8.48 4.8,-14.87 11.68,-14.87 6.72,0 11.76,6.31 11.76,15.03 0,6.56 -3.28,14.79 -11.6,14.79 -8.24,0 -11.84,-7.68 -11.84,-14.95 m 30.63,0.4 c 0,-14.31 -10,-20.55 -19.28,-20.55 -10.39,0 -18.54,7.68 -18.54,19.91 0,12.88 8.56,20.47 19.18,20.47 11.12,0 18.64,-8.07 18.64,-19.83"
         style="fill:#ea088a;fill-opacity:1;fill-rule:nonzero;stroke:none"
         id="path112" /><path
         d="m 1211.91,1639.9 c 0,4.56 -0.07,8.48 -0.31,12.08 h 6.15 l 0.34,-7.67 h 0.23 c 1.76,5.19 6.07,8.47 10.8,8.47 0.7,0 1.27,-0.08 1.92,-0.17 v -6.62 c -0.73,0.15 -1.45,0.15 -2.41,0.15 -4.96,0 -8.47,-3.68 -9.43,-8.95 -0.16,-0.96 -0.24,-2.16 -0.24,-3.28 v -20.63 h -7.05 v 26.62"
         style="fill:#ea088a;fill-opacity:1;fill-rule:nonzero;stroke:none"
         id="path114" /><path
         d="m 1281.43,1636.23 c 0,0.88 -0.08,2.08 -0.32,2.96 -1.03,4.39 -4.88,8.08 -10.15,8.08 -7.29,0 -11.6,-6.4 -11.6,-14.88 0,-7.84 3.92,-14.31 11.45,-14.31 4.7,0 9.01,3.2 10.3,8.39 0.24,0.96 0.32,1.92 0.32,3.04 z m 6.95,33.82 v -46.78 c 0,-3.44 0.17,-7.35 0.33,-9.99 h -6.25 l -0.31,6.72 h -0.24 c -2.09,-4.32 -6.71,-7.6 -13.04,-7.6 -9.36,0 -16.62,7.92 -16.62,19.67 -0.08,12.87 7.98,20.71 17.34,20.71 6,0 9.92,-2.8 11.68,-5.84 h 0.16 v 23.11 h 6.95"
         style="fill:#ea088a;fill-opacity:1;fill-rule:nonzero;stroke:none"
         id="path116" /><path
         d="m 1324.71,1636.39 c 0.08,4.4 -1.84,11.35 -9.75,11.35 -7.21,0 -10.23,-6.47 -10.8,-11.35 z m -20.64,-5.04 c 0.17,-9.51 6.16,-13.43 13.29,-13.43 5.04,0 8.15,0.88 10.71,2.01 l 1.29,-5.05 c -2.48,-1.12 -6.8,-2.48 -12.95,-2.48 -11.92,0 -19.05,7.92 -19.05,19.59 0,11.68 6.88,20.79 18.15,20.79 12.71,0 15.99,-11.03 15.99,-18.15 0,-1.44 -0.07,-2.48 -0.23,-3.28 h -27.2"
         style="fill:#ea088a;fill-opacity:1;fill-rule:nonzero;stroke:none"
         id="path118" /><path
         d="m 1340.23,1641.5 c 0,4.09 -0.15,7.28 -0.31,10.48 h 6.15 l 0.34,-6.32 h 0.23 c 2.17,3.69 5.76,7.12 12.23,7.12 5.19,0 9.2,-3.2 10.88,-7.76 h 0.15 c 1.21,2.25 2.81,3.84 4.4,5.04 2.32,1.76 4.8,2.72 8.47,2.72 5.2,0 12.8,-3.36 12.8,-16.79 v -22.71 h -6.88 v 21.83 c 0,7.52 -2.79,11.91 -8.4,11.91 -4.06,0 -7.11,-2.96 -8.38,-6.32 -0.33,-1.03 -0.56,-2.23 -0.56,-3.51 v -23.91 h -6.88 v 23.18 c 0,6.17 -2.71,10.56 -8.08,10.56 -4.32,0 -7.58,-3.51 -8.71,-7.03 -0.39,-0.97 -0.55,-2.25 -0.55,-3.44 v -23.27 h -6.9 v 28.22"
         style="fill:#ea088a;fill-opacity:1;fill-rule:nonzero;stroke:none"
         id="path120" /><path
         d="m 667.09,1544.55 c 1.519,-0.4 3.441,-0.56 5.762,-0.56 8.398,0 13.511,4.15 13.511,11.43 0,7.2 -5.113,10.63 -12.711,10.63 -3.043,0 -5.359,-0.23 -6.562,-0.55 z m -6.957,25.99 c 3.359,0.55 7.758,1.03 13.359,1.03 6.867,0 11.906,-1.59 15.106,-4.47 2.882,-2.56 4.722,-6.48 4.722,-11.28 0,-4.87 -1.441,-8.71 -4.16,-11.51 -3.762,-3.92 -9.68,-5.92 -16.469,-5.92 -2.082,0 -4,0.09 -5.601,0.49 v -21.59 h -6.957 v 53.25"
         style="fill:#ea088a;fill-opacity:1;fill-rule:nonzero;stroke:none"
         id="path122" /><path
         d="m 709.648,1522.72 c 1.758,-0.24 4.321,-0.32 7.04,-0.32 14.949,0 22.953,8.31 22.953,22.87 0.066,12.71 -7.121,20.78 -21.844,20.78 -3.586,0 -6.309,-0.31 -8.149,-0.71 z m -6.96,47.66 c 4.242,0.71 9.281,1.19 14.8,1.19 9.989,0 17.114,-2.38 21.821,-6.71 4.879,-4.4 7.679,-10.63 7.679,-19.35 0,-8.79 -2.8,-15.99 -7.758,-20.95 -5.113,-5.04 -13.433,-7.75 -23.902,-7.75 -5.039,0 -9.121,0.23 -12.64,0.63 v 52.94"
         style="fill:#ea088a;fill-opacity:1;fill-rule:nonzero;stroke:none"
         id="path124" /><path
         d="m 755.895,1571.17 h 29.015 v -5.83 h -21.976 v -17.91 h 20.296 v -5.76 h -20.296 v -24.38 h -7.039 v 53.88"
         style="fill:#ea088a;fill-opacity:1;fill-rule:nonzero;stroke:none"
         id="path126" /><path
         d="m 839.719,1542.55 h -20.871 v -19.43 h 23.347 v -5.83 h -30.386 v 53.88 h 29.187 v -5.83 h -22.148 v -17.03 h 20.871 v -5.76"
         style="fill:#ea088a;fill-opacity:1;fill-rule:nonzero;stroke:none"
         id="path128" /><path
         d="m 854.293,1555.99 5.516,-8.32 c 1.523,-2.16 2.711,-4.08 3.996,-6.23 h 0.156 c 1.281,2.23 2.562,4.23 3.922,6.3 l 5.359,8.25 h 7.68 l -13.203,-18.71 13.511,-19.99 h -7.91 l -5.757,8.71 c -1.524,2.24 -2.801,4.4 -4.161,6.71 h -0.148 c -1.281,-2.31 -2.563,-4.39 -4.082,-6.71 l -5.598,-8.71 h -7.761 l 13.75,19.73 -13.114,18.97 h 7.844"
         style="fill:#ea088a;fill-opacity:1;fill-rule:nonzero;stroke:none"
         id="path130" /><path
         d="m 895.004,1533.04 c 0,-1.05 0.078,-2 0.324,-2.88 1.277,-4.88 5.508,-8.24 10.547,-8.24 7.441,0 11.762,6.08 11.762,14.95 0,7.68 -4.082,14.31 -11.524,14.31 -4.789,0 -9.351,-3.36 -10.629,-8.63 -0.242,-0.88 -0.48,-1.92 -0.48,-2.79 z m -6.957,10.31 c 0,4.96 -0.152,8.95 -0.32,12.64 h 6.238 l 0.398,-6.64 h 0.164 c 2.797,4.71 7.438,7.44 13.75,7.44 9.438,0 16.481,-7.92 16.481,-19.59 0,-13.92 -8.563,-20.79 -17.672,-20.79 -5.121,0 -9.602,2.23 -11.918,6.07 h -0.164 v -21.02 h -6.957 v 41.89"
         style="fill:#ea088a;fill-opacity:1;fill-rule:nonzero;stroke:none"
         id="path132" /><path
         d="m 937.969,1536.55 c 0,-8.47 4.801,-14.87 11.672,-14.87 6.714,0 11.754,6.33 11.754,15.04 0,6.55 -3.274,14.78 -11.594,14.78 -8.235,0 -11.832,-7.67 -11.832,-14.95 m 30.629,0.4 c 0,-14.3 -10,-20.54 -19.278,-20.54 -10.39,0 -18.554,7.67 -18.554,19.91 0,12.87 8.566,20.47 19.195,20.47 11.117,0 18.637,-8.08 18.637,-19.84"
         style="fill:#ea088a;fill-opacity:1;fill-rule:nonzero;stroke:none"
         id="path134" /><path
         d="m 977.488,1543.91 c 0,4.56 -0.078,8.47 -0.32,12.08 h 6.16 l 0.324,-7.68 h 0.239 c 1.757,5.2 6.082,8.48 10.789,8.48 0.718,0 1.281,-0.09 1.922,-0.18 v -6.62 c -0.723,0.16 -1.442,0.16 -2.403,0.16 -4.961,0 -8.469,-3.69 -9.429,-8.96 -0.161,-0.96 -0.239,-2.16 -0.239,-3.28 v -20.62 h -7.043 v 26.62"
         style="fill:#ea088a;fill-opacity:1;fill-rule:nonzero;stroke:none"
         id="path136" /><path
         d="m 1014.04,1565.26 v -9.27 h 10.07 v -5.37 h -10.07 v -20.86 c 0,-4.8 1.37,-7.51 5.28,-7.51 1.93,0 3.04,0.15 4.08,0.47 l 0.31,-5.36 c -1.35,-0.48 -3.5,-0.95 -6.23,-0.95 -3.28,0 -5.92,1.12 -7.6,2.96 -1.91,2.15 -2.71,5.59 -2.71,10.15 v 21.1 h -6 v 5.37 h 6 v 7.19 l 6.87,2.08"
         style="fill:#ea088a;fill-opacity:1;fill-rule:nonzero;stroke:none"
         id="path138" /><path
         d="m 1075.07,1540.71 c 0,1.2 -0.07,2.24 -0.4,3.12 -1.28,4.16 -4.64,7.52 -9.83,7.52 -6.71,0 -11.51,-5.68 -11.51,-14.63 0,-7.6 3.91,-13.92 11.42,-13.92 4.41,0 8.32,2.72 9.76,7.2 0.4,1.2 0.56,2.56 0.56,3.76 z m 7.04,-17.75 c 0,-8.96 -1.84,-14.31 -5.52,-17.75 -3.84,-3.43 -9.28,-4.63 -14.16,-4.63 -4.63,0 -9.75,1.11 -12.87,3.19 l 1.76,5.44 c 2.56,-1.68 6.56,-3.12 11.36,-3.12 7.19,0 12.47,3.76 12.47,13.6 v 4.24 H 1075 c -2.08,-3.61 -6.33,-6.49 -12.32,-6.49 -9.6,0 -16.48,8.16 -16.48,18.88 0,13.1 8.56,20.47 17.51,20.47 6.72,0 10.32,-3.44 12.08,-6.64 h 0.16 l 0.24,5.84 h 6.23 c -0.23,-2.73 -0.31,-5.92 -0.31,-10.56 v -22.47"
         style="fill:#ea088a;fill-opacity:1;fill-rule:nonzero;stroke:none"
         id="path140" /><path
         d="m 1118.28,1540.39 c 0.08,4.4 -1.85,11.36 -9.76,11.36 -7.19,0 -10.24,-6.48 -10.81,-11.36 z m -20.64,-5.04 c 0.17,-9.51 6.17,-13.43 13.28,-13.43 5.04,0 8.14,0.88 10.7,2.02 l 1.29,-5.05 c -2.48,-1.13 -6.8,-2.48 -12.95,-2.48 -11.91,0 -19.04,7.92 -19.04,19.59 0,11.68 6.89,20.79 18.16,20.79 12.72,0 15.98,-11.04 15.98,-18.16 0,-1.43 -0.08,-2.48 -0.24,-3.28 h -27.18"
         style="fill:#ea088a;fill-opacity:1;fill-rule:nonzero;stroke:none"
         id="path142" /><path
         d="m 1133.81,1574.05 h 7.03 v -56.77 h -7.03 v 56.77"
         style="fill:#ea088a;fill-opacity:1;fill-rule:nonzero;stroke:none"
         id="path144" /><path
         d="m 1172.19,1566.93 c 0,2.25 1.76,4.09 4,4.09 2.25,0 3.93,-1.76 3.93,-4.09 0,-2.15 -1.6,-4.07 -4.01,-4.07 -2.32,0 -3.92,1.92 -3.92,4.07 m -14.79,0 c 0,2.25 1.76,4.09 4.08,4.09 2.16,0 3.84,-1.76 3.84,-4.09 0,-2.15 -1.61,-4.07 -3.99,-4.07 -2.25,0 -3.93,1.92 -3.93,4.07 m -0.31,-30.38 c 0,-8.47 4.79,-14.87 11.66,-14.87 6.72,0 11.76,6.32 11.76,15.05 0,6.54 -3.28,14.77 -11.58,14.77 -8.25,0 -11.84,-7.67 -11.84,-14.95 m 30.62,0.4 c 0,-14.3 -10,-20.54 -19.27,-20.54 -10.39,0 -18.55,7.67 -18.55,19.91 0,12.87 8.55,20.47 19.19,20.47 11.12,0 18.63,-8.08 18.63,-19.84"
         style="fill:#ea088a;fill-opacity:1;fill-rule:nonzero;stroke:none"
         id="path146" /><path
         d="m 1195.64,1524.4 c 2.15,-1.28 5.84,-2.72 9.37,-2.72 5.03,0 7.43,2.48 7.43,5.76 0,3.36 -2,5.12 -7.13,7.03 -7.03,2.56 -10.3,6.32 -10.3,10.96 0,6.24 5.11,11.36 13.35,11.36 3.91,0 7.34,-1.05 9.43,-2.41 l -1.68,-5.11 c -1.51,0.95 -4.31,2.31 -7.92,2.31 -4.15,0 -6.39,-2.39 -6.39,-5.27 0,-3.19 2.24,-4.64 7.28,-6.63 6.62,-2.48 10.16,-5.84 10.16,-11.6 0,-6.88 -5.37,-11.67 -14.4,-11.67 -4.23,0 -8.15,1.12 -10.88,2.71 l 1.68,5.28"
         style="fill:#ea088a;fill-opacity:1;fill-rule:nonzero;stroke:none"
         id="path148" /><path
         d="m 1255.86,1518.64 c -1.84,-0.88 -5.92,-2.23 -11.11,-2.23 -11.66,0 -19.26,7.92 -19.26,19.74 0,11.92 8.14,20.64 20.78,20.64 4.16,0 7.83,-1.05 9.77,-2.08 l -1.61,-5.36 c -1.69,0.87 -4.31,1.83 -8.16,1.83 -8.87,0 -13.67,-6.63 -13.67,-14.63 0,-8.94 5.76,-14.47 13.44,-14.47 3.98,0 6.64,0.96 8.63,1.85 l 1.19,-5.29"
         style="fill:#ea088a;fill-opacity:1;fill-rule:nonzero;stroke:none"
         id="path150" /><path
         d="m 1264.12,1574.05 h 7.03 v -24.23 h 0.16 c 1.13,2.01 2.89,3.84 5.04,5.04 2.09,1.2 4.57,1.93 7.2,1.93 5.2,0 13.52,-3.21 13.52,-16.48 v -23.02 h -7.05 v 22.22 c 0,6.24 -2.31,11.44 -8.95,11.44 -4.55,0 -8.08,-3.21 -9.43,-6.96 -0.41,-1.04 -0.49,-2.08 -0.49,-3.36 v -23.34 h -7.03 v 56.76"
         style="fill:#ea088a;fill-opacity:1;fill-rule:nonzero;stroke:none"
         id="path152" /><path
         d="m 1316.68,1565.26 v -9.27 h 10.08 v -5.37 h -10.08 v -20.86 c 0,-4.8 1.37,-7.51 5.27,-7.51 1.92,0 3.05,0.15 4.09,0.47 l 0.31,-5.36 c -1.35,-0.48 -3.52,-0.95 -6.23,-0.95 -3.28,0 -5.92,1.12 -7.6,2.96 -1.91,2.15 -2.71,5.59 -2.71,10.15 v 21.1 h -6 v 5.37 h 6 v 7.19 l 6.87,2.08"
         style="fill:#ea088a;fill-opacity:1;fill-rule:nonzero;stroke:none"
         id="path154" /><path
         d="m 1356.04,1536.55 c 0,-8.47 4.8,-14.87 11.67,-14.87 6.72,0 11.76,6.33 11.76,15.04 0,6.55 -3.28,14.78 -11.6,14.78 -8.24,0 -11.83,-7.67 -11.83,-14.95 m 30.62,0.4 c 0,-14.3 -10,-20.54 -19.28,-20.54 -10.39,0 -18.53,7.67 -18.53,19.91 0,12.87 8.55,20.47 19.18,20.47 11.11,0 18.63,-8.08 18.63,-19.84"
         style="fill:#ea088a;fill-opacity:1;fill-rule:nonzero;stroke:none"
         id="path156" /><path
         d="m 1421.94,1540.23 c 0,0.88 -0.06,2.08 -0.32,2.96 -1.03,4.4 -4.86,8.08 -10.16,8.08 -7.26,0 -11.58,-6.4 -11.58,-14.87 0,-7.85 3.91,-14.32 11.43,-14.32 4.73,0 9.04,3.2 10.31,8.4 0.26,0.96 0.32,1.91 0.32,3.04 z m 6.97,33.82 v -46.77 c 0,-3.44 0.15,-7.36 0.31,-9.99 h -6.24 l -0.3,6.71 h -0.26 c -2.07,-4.31 -6.72,-7.59 -13.03,-7.59 -9.35,0 -16.64,7.92 -16.64,19.66 -0.07,12.88 8.01,20.72 17.37,20.72 5.99,0 9.92,-2.81 11.68,-5.84 h 0.14 v 23.1 h 6.97"
         style="fill:#ea088a;fill-opacity:1;fill-rule:nonzero;stroke:none"
         id="path158" /><path
         d="m 1465.23,1540.39 c 0.08,4.4 -1.83,11.36 -9.76,11.36 -7.19,0 -10.24,-6.48 -10.78,-11.36 z m -20.63,-5.04 c 0.17,-9.51 6.16,-13.43 13.27,-13.43 5.04,0 8.17,0.88 10.72,2.02 l 1.27,-5.05 c -2.48,-1.13 -6.79,-2.48 -12.95,-2.48 -11.91,0 -19.02,7.92 -19.02,19.59 0,11.68 6.88,20.79 18.15,20.79 12.71,0 15.99,-11.04 15.99,-18.16 0,-1.43 -0.09,-2.48 -0.23,-3.28 h -27.2"
         style="fill:#ea088a;fill-opacity:1;fill-rule:nonzero;stroke:none"
         id="path160" /><path
         d="m 1480.76,1543.91 c 0,4.56 -0.08,8.47 -0.31,12.08 h 6.15 l 0.31,-7.68 h 0.26 c 1.76,5.2 6.07,8.48 10.78,8.48 0.72,0 1.29,-0.09 1.91,-0.18 v -6.62 c -0.7,0.16 -1.42,0.16 -2.38,0.16 -4.96,0 -8.48,-3.69 -9.42,-8.96 -0.19,-0.96 -0.27,-2.16 -0.27,-3.28 v -20.62 h -7.03 v 26.62"
         style="fill:#ea088a;fill-opacity:1;fill-rule:nonzero;stroke:none"
         id="path162" /><path
         d="m 730.645,1441.03 c -7.68,0.16 -16.391,-1.2 -16.391,-8.72 0,-4.63 3.043,-6.71 6.562,-6.71 5.106,0 8.387,3.2 9.512,6.46 0.238,0.81 0.317,1.61 0.317,2.26 z m 6.8,-10.47 c 0,-3.36 0.16,-6.64 0.559,-9.28 h -6.32 l -0.563,4.87 h -0.238 c -2.156,-3.03 -6.317,-5.76 -11.828,-5.76 -7.84,0 -11.836,5.53 -11.836,11.12 0,9.36 8.316,14.48 23.265,14.4 v 0.8 c 0,3.11 -0.879,8.95 -8.8,8.87 -3.672,0 -7.43,-1.04 -10.153,-2.87 l -1.593,4.71 c 3.199,1.99 7.917,3.36 12.789,3.36 11.839,0 14.718,-8.07 14.718,-15.75 v -14.47"
         style="fill:#ea088a;fill-opacity:1;fill-rule:nonzero;stroke:none"
         id="path164" /><path
         d="m 781.195,1431.91 c 0,-4.08 0.078,-7.59 0.321,-10.63 h -6.239 l -0.39,6.32 h -0.16 c -1.762,-3.12 -5.922,-7.2 -12.801,-7.2 -6.082,0 -13.352,3.44 -13.352,16.95 v 22.63 h 7.031 v -21.35 c 0,-7.36 2.321,-12.39 8.641,-12.39 4.719,0 7.988,3.27 9.27,6.47 0.402,0.96 0.64,2.24 0.64,3.6 v 23.67 h 7.039 v -28.07"
         style="fill:#ea088a;fill-opacity:1;fill-rule:nonzero;stroke:none"
         id="path166" /><path
         d="m 791.934,1428.4 c 2.16,-1.28 5.832,-2.73 9.359,-2.73 5.031,0 7.434,2.48 7.434,5.77 0,3.35 -2.004,5.1 -7.125,7.03 -7.028,2.56 -10.309,6.32 -10.309,10.95 0,6.24 5.125,11.36 13.352,11.36 3.918,0 7.359,-1.04 9.437,-2.4 l -1.68,-5.12 c -1.519,0.96 -4.316,2.32 -7.922,2.32 -4.16,0 -6.382,-2.4 -6.382,-5.29 0,-3.18 2.222,-4.63 7.269,-6.63 6.637,-2.47 10.156,-5.83 10.156,-11.59 0,-6.87 -5.355,-11.67 -14.402,-11.67 -4.226,0 -8.148,1.12 -10.867,2.72 l 1.68,5.28"
         style="fill:#ea088a;fill-opacity:1;fill-rule:nonzero;stroke:none"
         id="path168" /><path
         d="m 850.641,1444.71 c 0,1.2 -0.078,2.23 -0.403,3.11 -1.277,4.16 -4.636,7.51 -9.828,7.51 -6.719,0 -11.519,-5.66 -11.519,-14.62 0,-7.59 3.918,-13.91 11.429,-13.91 4.403,0 8.317,2.71 9.758,7.19 0.402,1.21 0.563,2.56 0.563,3.76 z m 7.039,-17.76 c 0,-8.95 -1.84,-14.3 -5.524,-17.74 -3.836,-3.44 -9.273,-4.64 -14.16,-4.64 -4.629,0 -9.742,1.11 -12.863,3.19 l 1.758,5.44 c 2.558,-1.68 6.562,-3.11 11.363,-3.11 7.184,0 12.465,3.76 12.465,13.59 v 4.24 h -0.156 c -2.083,-3.6 -6.325,-6.48 -12.309,-6.48 -9.602,0 -16.484,8.16 -16.484,18.87 0,13.11 8.562,20.47 17.511,20.47 6.719,0 10.321,-3.44 12.082,-6.64 h 0.157 l 0.238,5.84 h 6.23 c -0.238,-2.72 -0.308,-5.92 -0.308,-10.56 v -22.47"
         style="fill:#ea088a;fill-opacity:1;fill-rule:nonzero;stroke:none"
         id="path170" /><path
         d="m 893.844,1444.38 c 0.078,4.4 -1.84,11.36 -9.762,11.36 -7.187,0 -10.23,-6.47 -10.789,-11.36 z m -20.629,-5.03 c 0.16,-9.52 6.16,-13.43 13.269,-13.43 5.039,0 8.161,0.88 10.707,2.01 l 1.282,-5.05 c -2.473,-1.12 -6.789,-2.48 -12.95,-2.48 -11.91,0 -19.031,7.91 -19.031,19.59 0,11.67 6.883,20.79 18.153,20.79 12.718,0 15.992,-11.03 15.992,-18.15 0,-1.44 -0.086,-2.48 -0.246,-3.28 h -27.176"
         style="fill:#ea088a;fill-opacity:1;fill-rule:nonzero;stroke:none"
         id="path172" /><path
         d="m 916.328,1436.79 c 0,-0.88 0.078,-1.76 0.32,-2.56 1.282,-4.87 5.442,-8.23 10.547,-8.23 7.446,0 11.766,5.99 11.766,14.87 0,7.75 -4.004,14.39 -11.594,14.39 -4.722,0 -9.199,-3.36 -10.637,-8.64 -0.242,-0.88 -0.402,-1.83 -0.402,-2.97 z m -6.957,41.26 h 6.957 v -24.31 h 0.16 c 2.481,4.32 6.95,7.04 13.192,7.04 9.675,0 16.39,-8 16.39,-19.68 0,-13.82 -8.789,-20.7 -17.433,-20.7 -5.602,0 -10.067,2.16 -13.032,7.2 h -0.156 l -0.398,-6.32 h -6.004 c 0.172,2.64 0.324,6.54 0.324,9.99 v 46.78"
         style="fill:#ea088a;fill-opacity:1;fill-rule:nonzero;stroke:none"
         id="path174" /><path
         d="m 954.887,1478.05 h 7.043 v -56.77 h -7.043 v 56.77"
         style="fill:#ea088a;fill-opacity:1;fill-rule:nonzero;stroke:none"
         id="path176" /><path
         d="m 998.316,1444.38 c 0.079,4.4 -1.839,11.36 -9.753,11.36 -7.196,0 -10.239,-6.47 -10.797,-11.36 z m -20.628,-5.03 c 0.16,-9.52 6.156,-13.43 13.281,-13.43 5.039,0 8.148,0.88 10.701,2.01 l 1.28,-5.05 c -2.48,-1.12 -6.794,-2.48 -12.946,-2.48 -11.906,0 -19.027,7.91 -19.027,19.59 0,11.67 6.871,20.79 18.148,20.79 12.715,0 15.995,-11.03 15.995,-18.15 0,-1.44 -0.09,-2.48 -0.25,-3.28 h -27.182"
         style="fill:#ea088a;fill-opacity:1;fill-rule:nonzero;stroke:none"
         id="path178" /><path
         d="m 1013.85,1449.5 c 0,4.08 -0.08,7.28 -0.32,10.48 h 6.24 l 0.4,-6.4 h 0.16 c 1.92,3.6 6.4,7.2 12.79,7.2 5.36,0 13.67,-3.2 13.67,-16.47 v -23.03 h -7.03 v 22.3 c 0,6.24 -2.32,11.44 -8.96,11.44 -4.55,0 -8.15,-3.28 -9.43,-7.2 -0.32,-0.88 -0.48,-2.08 -0.48,-3.27 v -23.27 h -7.04 v 28.22"
         style="fill:#ea088a;fill-opacity:1;fill-rule:nonzero;stroke:none"
         id="path180" /><path
         d="m 1084.63,1444.23 c 0,0.88 -0.08,2.08 -0.31,2.96 -1.04,4.39 -4.88,8.08 -10.16,8.08 -7.27,0 -11.59,-6.4 -11.59,-14.88 0,-7.84 3.92,-14.32 11.43,-14.32 4.72,0 9.03,3.21 10.32,8.4 0.23,0.96 0.31,1.92 0.31,3.04 z m 6.95,33.82 v -46.78 c 0,-3.44 0.18,-7.35 0.33,-9.99 h -6.25 l -0.31,6.72 h -0.23 c -2.09,-4.32 -6.73,-7.6 -13.04,-7.6 -9.35,0 -16.63,7.91 -16.63,19.67 -0.08,12.87 8,20.71 17.35,20.71 6,0 9.91,-2.8 11.67,-5.84 h 0.16 v 23.11 h 6.95"
         style="fill:#ea088a;fill-opacity:1;fill-rule:nonzero;stroke:none"
         id="path182" /><path
         d="m 1127.91,1444.38 c 0.08,4.4 -1.84,11.36 -9.75,11.36 -7.2,0 -10.23,-6.47 -10.8,-11.36 z m -20.63,-5.03 c 0.16,-9.52 6.16,-13.43 13.29,-13.43 5.04,0 8.14,0.88 10.7,2.01 l 1.29,-5.05 c -2.48,-1.12 -6.8,-2.48 -12.95,-2.48 -11.91,0 -19.04,7.91 -19.04,19.59 0,11.67 6.87,20.79 18.14,20.79 12.72,0 16,-11.03 16,-18.15 0,-1.44 -0.08,-2.48 -0.24,-3.28 h -27.19"
         style="fill:#ea088a;fill-opacity:1;fill-rule:nonzero;stroke:none"
         id="path184" /><path
         d="m 1151.91,1469.25 v -9.27 h 10.08 v -5.36 h -10.08 v -20.87 c 0,-4.79 1.37,-7.51 5.3,-7.51 1.91,0 3.02,0.16 4.06,0.48 l 0.33,-5.36 c -1.37,-0.48 -3.51,-0.96 -6.25,-0.96 -3.26,0 -5.9,1.12 -7.58,2.96 -1.93,2.16 -2.73,5.6 -2.73,10.16 v 21.1 h -6 v 5.36 h 6 v 7.2 l 6.87,2.07"
         style="fill:#ea088a;fill-opacity:1;fill-rule:nonzero;stroke:none"
         id="path186" /><path
         d="m 1189.69,1459.98 5.2,-19.67 c 1.03,-4.32 2.06,-8.32 2.79,-12.31 h 0.23 c 0.88,3.91 2.17,8.07 3.44,12.22 l 6.33,19.76 h 5.91 l 6,-19.36 c 1.45,-4.63 2.56,-8.71 3.44,-12.62 h 0.23 c 0.65,3.91 1.68,7.99 2.97,12.55 l 5.51,19.43 h 6.95 l -12.46,-38.7 h -6.41 l -5.91,18.47 c -1.35,4.31 -2.48,8.15 -3.44,12.71 h -0.15 c -0.96,-4.64 -2.18,-8.63 -3.52,-12.79 l -6.23,-18.39 h -6.41 l -11.68,38.7 h 7.21"
         style="fill:#ea088a;fill-opacity:1;fill-rule:nonzero;stroke:none"
         id="path188" /><path
         d="m 1269.51,1444.38 c 0.08,4.4 -1.83,11.36 -9.74,11.36 -7.21,0 -10.24,-6.47 -10.81,-11.36 z m -20.62,-5.03 c 0.15,-9.52 6.15,-13.43 13.26,-13.43 5.04,0 8.16,0.88 10.72,2.01 l 1.27,-5.05 c -2.46,-1.12 -6.8,-2.48 -12.95,-2.48 -11.91,0 -19.02,7.91 -19.02,19.59 0,11.67 6.87,20.79 18.14,20.79 12.72,0 16,-11.03 16,-18.15 0,-1.44 -0.08,-2.48 -0.24,-3.28 h -27.18"
         style="fill:#ea088a;fill-opacity:1;fill-rule:nonzero;stroke:none"
         id="path190" /><path
         d="m 1285.04,1447.9 c 0,4.56 -0.08,8.48 -0.31,12.08 h 6.15 l 0.31,-7.68 h 0.26 c 1.74,5.2 6.07,8.48 10.78,8.48 0.72,0 1.29,-0.09 1.93,-0.17 v -6.63 c -0.72,0.16 -1.45,0.16 -2.4,0.16 -4.96,0 -8.48,-3.68 -9.44,-8.95 -0.15,-0.96 -0.25,-2.16 -0.25,-3.29 v -20.62 h -7.03 v 26.62"
         style="fill:#ea088a;fill-opacity:1;fill-rule:nonzero;stroke:none"
         id="path192" /><path
         d="m 1336.8,1444.23 c 0,0.88 -0.08,2.08 -0.34,2.96 -1.03,4.39 -4.86,8.08 -10.15,8.08 -7.27,0 -11.58,-6.4 -11.58,-14.88 0,-7.84 3.9,-14.32 11.42,-14.32 4.73,0 9.05,3.21 10.31,8.4 0.26,0.96 0.34,1.92 0.34,3.04 z m 6.95,33.82 v -46.78 c 0,-3.44 0.16,-7.35 0.31,-9.99 h -6.23 l -0.31,6.72 h -0.25 c -2.07,-4.32 -6.72,-7.6 -13.03,-7.6 -9.36,0 -16.64,7.91 -16.64,19.67 -0.08,12.87 8.01,20.71 17.36,20.71 6,0 9.9,-2.8 11.66,-5.84 h 0.18 v 23.11 h 6.95"
         style="fill:#ea088a;fill-opacity:1;fill-rule:nonzero;stroke:none"
         id="path194" /><path
         d="m 1380.08,1444.38 c 0.08,4.4 -1.84,11.36 -9.77,11.36 -7.18,0 -10.23,-6.47 -10.78,-11.36 z m -20.64,-5.03 c 0.17,-9.52 6.17,-13.43 13.27,-13.43 5.04,0 8.17,0.88 10.73,2.01 l 1.27,-5.05 c -2.48,-1.12 -6.8,-2.48 -12.95,-2.48 -11.92,0 -19.03,7.91 -19.03,19.59 0,11.67 6.88,20.79 18.15,20.79 12.71,0 16,-11.03 16,-18.15 0,-1.44 -0.08,-2.48 -0.26,-3.28 h -27.18"
         style="fill:#ea088a;fill-opacity:1;fill-rule:nonzero;stroke:none"
         id="path196" /><path
         d="m 1395.61,1449.5 c 0,4.08 -0.08,7.28 -0.32,10.48 h 6.23 l 0.39,-6.4 h 0.18 c 1.91,3.6 6.39,7.2 12.79,7.2 5.35,0 13.67,-3.2 13.67,-16.47 v -23.03 h -7.05 v 22.3 c 0,6.24 -2.3,11.44 -8.94,11.44 -4.55,0 -8.17,-3.28 -9.43,-7.2 -0.34,-0.88 -0.49,-2.08 -0.49,-3.27 v -23.27 h -7.03 v 28.22"
         style="fill:#ea088a;fill-opacity:1;fill-rule:nonzero;stroke:none"
         id="path198" /><path
         d="m 1438.32,1425.44 c 0,2.87 1.99,5.04 4.8,5.04 2.8,0 4.71,-2.08 4.71,-5.04 0,-2.88 -1.91,-5.04 -4.86,-5.04 -2.74,0 -4.65,2.16 -4.65,5.04"
         style="fill:#ea088a;fill-opacity:1;fill-rule:nonzero;stroke:none"
         id="path200" /></g></g></svg>
